<?xml version="1.0" encoding="UTF-8" standalone="no"?>
<svg
   xmlns:dc="http://purl.org/dc/elements/1.1/"
   xmlns:cc="http://creativecommons.org/ns#"
   xmlns:rdf="http://www.w3.org/1999/02/22-rdf-syntax-ns#"
   xmlns:svg="http://www.w3.org/2000/svg"
   xmlns="http://www.w3.org/2000/svg"
   xmlns:sodipodi="http://sodipodi.sourceforge.net/DTD/sodipodi-0.dtd"
   xmlns:inkscape="http://www.inkscape.org/namespaces/inkscape"
   id="svg4734"
   version="1.1"
   viewBox="0 0 16 16"
   height="16"
   width="16"
   sodipodi:docname="electrical-pole.svg"
   inkscape:version="0.92.3 (2405546, 2018-03-11)">
  <sodipodi:namedview
     pagecolor="#ffffff"
     bordercolor="#666666"
     borderopacity="1"
     objecttolerance="10"
     gridtolerance="10"
     guidetolerance="10"
     inkscape:pageopacity="0"
     inkscape:pageshadow="2"
     inkscape:window-width="1067"
     inkscape:window-height="803"
     id="namedview5707"
     showgrid="false"
     inkscape:zoom="4.5949176"
     inkscape:cx="27.42312"
     inkscape:cy="21.366464"
     inkscape:window-x="0"
     inkscape:window-y="27"
     inkscape:window-maximized="0"
     inkscape:current-layer="svg4734"
     units="px" />
  <defs
     id="defs4728" />
  <metadata
     id="metadata4731">
    <rdf:RDF>
      <cc:Work
         rdf:about="">
        <dc:format>image/svg+xml</dc:format>
        <dc:type
           rdf:resource="http://purl.org/dc/dcmitype/StillImage" />
        <dc:title></dc:title>
      </cc:Work>
    </rdf:RDF>
  </metadata>
  <g
     id="g5932"
     transform="matrix(1.0257586,0,0,1.2170414,0.53294857,-0.28680106)">
    <rect
       y="0.23032695"
       x="6.4491549"
       height="13.301382"
       width="1.6698704"
       id="rect5873"
       style="fill:#800000;stroke:#000000;stroke-width:0.21722293;stroke-linecap:round;stroke-linejoin:round;stroke-miterlimit:4;stroke-dasharray:none;stroke-opacity:1" />
    <rect
       y="2.2456877"
       x="3.6276498"
       height="1.4971253"
       width="8.0614433"
       id="rect5875"
       style="fill:#800000;stroke:#000000;stroke-width:0.21722293;stroke-linecap:round;stroke-linejoin:round;stroke-miterlimit:4;stroke-dasharray:none;stroke-opacity:1" />
    <rect
       y="5.700592"
       x="4.3762126"
       height="1.0364714"
       width="6.2188282"
       id="rect5877"
       style="fill:#800000;stroke:#000000;stroke-width:0.21722293;stroke-linecap:round;stroke-linejoin:round;stroke-miterlimit:4;stroke-dasharray:none;stroke-opacity:1" />
    <rect
       y="8.5796795"
       x="4.2034669"
       height="1.6122887"
       width="7.6007895"
       id="rect5879"
       style="fill:#800000;stroke:#000000;stroke-width:0.21722293;stroke-linecap:round;stroke-linejoin:round;stroke-miterlimit:4;stroke-dasharray:none;stroke-opacity:1" />
    <path
       inkscape:connector-curvature="0"
       id="path5881"
       d="m 3.6276497,3.742813 c -0.038388,0 -0.083223,-0.021294 -0.1151636,0 -0.2084251,0.1389499 -0.2152492,0.2294171 -0.3454903,0.4030724 -0.094155,0.1255395 -0.0356,-0.026162 -0.1151636,0.1727451 -0.022543,0.056355 -0.030438,0.1184566 -0.057582,0.1727452 -0.024278,0.048557 -0.08259,0.071733 -0.1151633,0.1151636 -0.094465,0.1259535 -0.080866,0.1929617 -0.2303269,0.2303269 -0.037242,0.00931 -0.078746,-0.012139 -0.1151636,0 -0.025751,0.00858 -0.038388,0.038388 -0.057582,0.057582 -0.057582,0.019193 -0.113861,0.042861 -0.1727452,0.057582 -0.048749,0.012187 -0.1705418,0 -0.230327,0 -0.1535513,0 -0.3071026,0 -0.4606539,0 -0.09597,0 -0.1919391,0 -0.2879087,0 -0.038388,0 -0.078746,0.012139 -0.1151635,0 -0.025751,-0.00858 -0.033303,-0.045443 -0.057582,-0.057582 C 1.0973462,4.8673036 1.0331782,4.8640103 0.97888958,4.8368662 0.95461099,4.8247269 0.94302327,4.7955708 0.92130783,4.7792844 0.35030007,4.3510285 1.0353062,4.8744773 0.63339913,4.6065393 0.55418388,4.553729 0.57417751,4.5177067 0.51823565,4.4337939 0.45916385,4.3451862 0.34276858,4.2949 0.2879087,4.2034669 0.25668062,4.1514202 0.26155504,4.0827685 0.23032696,4.0307218 0.05758174,3.742813 0.17274522,4.0307218 0.05758174,3.8579766 0.03377462,3.8222658 0.01919391,3.7812009 0,3.742813 -0.01919391,3.7044251 -0.04916465,3.6697351 -0.05758174,3.6276497 c -0.01129271,-0.056464 0.01396564,-0.1168829 0,-0.1727455 C -0.06416521,3.4285703 -0.0988769,3.4190381 -0.11516348,3.3973227 -0.23356822,3.2394495 -0.23032696,3.2551189 -0.23032696,3.109414"
       style="fill:none;stroke:#000000;stroke-width:0.26458335px;stroke-linecap:butt;stroke-linejoin:miter;stroke-opacity:1" />
    <path
       inkscape:connector-curvature="0"
       id="path5883"
       d="m 11.57393,3.1669958 c 0,0.51112 -0.06786,0.099745 0.172745,0.4606539 0.03367,0.050502 0.03044,0.1184566 0.05758,0.1727451 0.03896,0.07793 0.253132,0.3596013 0.287908,0.4030721 0.01696,0.021196 0.04063,0.036386 0.05758,0.057582 0.05995,0.07494 0.104885,0.1624664 0.172745,0.230327 0.01357,0.013573 0.03839,0 0.05758,0 0.02022,0 0.345106,-0.011594 0.403072,0 0.0776,0.01552 0.152265,0.044571 0.230327,0.057582 0.03787,0.00631 0.07678,0 0.115164,0 0.07678,0 0.153551,0 0.230327,0 0.287908,0 0.575817,0 0.863726,0 0.03839,0 0.07677,0 0.115163,0 0.01919,0 0.04401,0.013573 0.05758,0 0.04893,-0.048935 0.07364,-0.1173817 0.115163,-0.1727452 0.01628,-0.021714 0.04252,-0.034996 0.05758,-0.057582 0.02381,-0.035711 0.0355,-0.078361 0.05758,-0.1151636 0.03561,-0.059342 0.07364,-0.1173813 0.115163,-0.1727451 0.01629,-0.021714 0.04544,-0.033303 0.05758,-0.057582 0.06365,-0.1273027 0.05758,-0.1321772 0.05758,-0.230327"
       style="fill:none;stroke:#000000;stroke-width:0.26458335px;stroke-linecap:butt;stroke-linejoin:miter;stroke-opacity:1" />
    <path
       inkscape:connector-curvature="0"
       id="path5885"
       d="m 10.595041,5.7005919 c 0.09597,0.2495209 0.16835,0.5094466 0.287908,0.748563 0.01919,0.038388 0.07836,0.0355 0.115163,0.057582 0.05934,0.035605 0.113403,0.079558 0.172745,0.1151633 0.223282,0.1339691 0.0049,-0.039492 0.287909,0.1727452 0.02171,0.016288 0.03125,0.050998 0.05758,0.057582 0.111725,0.027931 0.231894,-0.018934 0.34549,0 0.05987,0.00998 0.112875,0.047603 0.172745,0.057582 0.149351,0.024892 0.310731,-0.021418 0.460654,0 0.07834,0.011192 0.1518,0.047766 0.230327,0.057582 0.07618,0.00952 0.153552,0 0.230327,0 0.268715,0 0.53743,0 0.806145,0 0.115163,0 0.230327,0 0.34549,0 0.05758,0 0.116282,0.011292 0.172745,0 0.04209,-0.00842 0.07945,-0.033775 0.115164,-0.057582 0.03936,-0.026241 0.219095,-0.2134796 0.230327,-0.230327 0.01065,-0.01597 0,-0.038388 0,-0.057582 0,-0.019193 0,-0.038388 0,-0.057582"
       style="fill:none;stroke:#000000;stroke-width:0.26458335px;stroke-linecap:butt;stroke-linejoin:miter;stroke-opacity:1" />
    <path
       inkscape:connector-curvature="0"
       id="path5887"
       d="m 11.746675,8.637261 c 0.0927,0.2317404 0.108035,0.37972 0.34549,0.5182355 0.141654,0.082631 0.308391,0.1118399 0.460654,0.1727454 0.135722,0.054289 0.26126,0.137292 0.403072,0.1727451 0.0931,0.023275 0.19194,0 0.287909,0 0.230327,0 0.460654,0 0.690981,0 0.153551,0 0.307103,0 0.460654,0 0.07678,0 0.153551,0 0.230327,0 0.01919,0 0.04041,0.00858 0.05758,0 0.04856,-0.024278 0.06661,-0.090885 0.115163,-0.1151636 0.01717,-0.00858 0.04041,0.00858 0.05758,0 0.08584,-0.042919 0.104884,-0.1624661 0.172745,-0.2303269 0.03035,-0.030348 0.07678,-0.038388 0.115163,-0.057582"
       style="fill:none;stroke:#000000;stroke-width:0.26458335px;stroke-linecap:butt;stroke-linejoin:miter;stroke-opacity:1" />
    <path
       inkscape:connector-curvature="0"
       id="path5889"
       d="m 4.2034669,8.5796792 c -0.095969,0.038388 -0.1954586,0.068939 -0.2879085,0.1151634 -0.620667,0.3103335 0.5231993,-0.1460225 -0.5182357,0.2879087 -0.112055,0.04669 -0.2327799,0.070079 -0.3454905,0.1151636 -0.079698,0.031879 -0.1506287,0.083284 -0.230327,0.1151634 -0.017822,0.00713 -0.038388,0 -0.057582,0 -0.057581,0 -0.115742,-0.00814 -0.1727451,0 -0.078343,0.011192 -0.1519838,0.04639 -0.230327,0.057582 -0.095005,0.013573 -0.1932449,-0.015777 -0.2879087,0 -0.078062,0.013009 -0.1517995,0.047766 -0.2303269,0.057582 -0.076183,0.00952 -0.1535513,0 -0.230327,0 -0.211133,0 -0.4222661,0 -0.63339912,0 -0.36859104,0 -0.80888905,0.054837 -1.09405306,-0.230327 -0.0191939,-0.019193 -0.0425248,-0.034996 -0.0575817,-0.057582 -0.0238071,-0.035711 -0.0383878,-0.076776 -0.0575817,-0.1151636 -0.0383878,-0.076776 -0.0880192,-0.148894 -0.11516346,-0.2303269 -0.0121393,-0.036418 0,-0.076776 0,-0.1151634"
       style="fill:none;stroke:#000000;stroke-width:0.26458335px;stroke-linecap:butt;stroke-linejoin:miter;stroke-opacity:1" />
  </g>
</svg>
